<svg width="180" height="57" viewBox="0 0 180 57" fill="none" xmlns="http://www.w3.org/2000/svg">
<g clip-path="url(#clip0_1_1014)">
<g clip-path="url(#clip1_1_1014)">
<path d="M22.5079 1.18327C19.8681 1.18327 17.7085 3.77474 17.7085 6.94228C17.6896 7.83622 17.8643 8.72366 18.2205 9.54378C18.5767 10.3639 19.106 11.0973 19.7722 11.6938C21.0199 12.7496 21.2119 13.0854 21.548 13.8054C21.7879 14.3349 21.7399 16.3489 21.692 17.8369H23.2279C23.1799 16.3479 23.1799 14.3335 23.3718 13.8054C23.708 13.0854 23.852 12.7496 25.1477 11.6938C25.8138 11.0973 26.3432 10.3639 26.6994 9.54378C27.0556 8.72366 27.2302 7.83622 27.2114 6.94228C27.2591 3.77474 25.0994 1.18327 22.5079 1.18327Z" fill="#7BD5D5"/>
<path d="M22.4136 46.0569C25.0534 46.0569 27.2114 43.4651 27.2114 40.2975C27.2303 39.4036 27.0556 38.5162 26.6994 37.6962C26.3432 36.8761 25.8139 36.1428 25.1477 35.5464C23.9 34.4905 23.708 34.1544 23.3719 33.4347C23.132 32.9053 23.18 30.8909 23.2279 29.4032H21.694C21.7419 30.8922 21.7419 32.9066 21.5497 33.4347C21.2139 34.1544 21.0699 34.4905 19.7742 35.5464C18.4785 36.6022 17.7105 38.3298 17.7105 40.2975C17.6145 43.4651 19.7742 46.0569 22.4136 46.0569Z" fill="#7BD5D5"/>
<path d="M6.57499 7.75823C4.70318 9.63004 5.03936 12.9895 7.29499 15.2451C7.92132 15.8899 8.67736 16.3944 9.51314 16.7254C10.3489 17.0563 11.2454 17.2061 12.1434 17.1649C13.823 17.021 14.1588 17.1169 14.8788 17.4048C15.4082 17.597 16.7979 19.0367 17.8544 20.1405L18.3838 19.6128L18.9133 19.0833C17.8574 18.0755 16.3698 16.6348 16.1775 16.1077C15.8897 15.3881 15.7937 15.0039 15.9376 13.3723C16.0012 12.4722 15.8617 11.5693 15.5296 10.7303C15.1974 9.89126 14.681 9.13758 14.0185 8.52489C11.7583 6.22261 8.44679 5.88643 6.57499 7.75823Z" fill="#7BD5D5"/>
<path d="M38.2986 39.4819C40.1701 37.6101 39.8343 34.2986 37.5786 32.0427C36.9524 31.3981 36.1965 30.8938 35.3609 30.563C34.5253 30.2322 33.629 30.0824 32.7312 30.1236C31.0517 30.2675 30.7155 30.1716 29.9958 29.8834C29.4664 29.6914 28.0767 28.2518 27.0202 27.1479L26.4908 27.6757L25.963 28.2051C27.0189 29.213 28.5065 30.6536 28.6984 31.1807C28.9866 31.9004 29.0826 32.2846 28.9386 33.9161C28.8751 34.8163 29.0145 35.7192 29.3467 36.5582C29.6789 37.3972 30.1953 38.1509 30.8578 38.7636C33.1154 41.0655 36.4268 41.3524 38.2986 39.4819Z" fill="#7BD5D5"/>
<path d="M0 23.6439C0 26.2837 2.59147 28.4417 5.75901 28.4417C6.65295 28.4605 7.54039 28.2858 8.36051 27.9296C9.18063 27.5734 9.91404 27.0441 10.5105 26.378C11.5663 25.0822 11.9022 24.9383 12.6222 24.6021C13.1516 24.3622 15.1657 24.4102 16.6536 24.4102V22.8763C15.1647 22.9242 13.1503 22.9242 12.6222 22.7323C11.9022 22.3961 11.5663 22.2522 10.5105 20.9565C9.45463 19.6607 7.72676 18.8928 5.75901 18.8928C2.59147 18.8448 0 21.0031 0 23.6439Z" fill="#7BD5D5"/>
<path d="M44.8736 23.6439C44.8736 21.0044 42.2818 18.8461 39.1143 18.8461C38.2204 18.8273 37.333 19.002 36.5129 19.3582C35.6929 19.7144 34.9595 20.2437 34.3631 20.9098C33.3073 22.2055 32.9711 22.3495 32.2514 22.6853C31.722 22.9256 29.7076 22.8776 28.22 22.8296V24.3652C29.7089 24.3172 31.7234 24.3172 32.2514 24.5571C32.9711 24.8933 33.3073 25.0372 34.3631 26.333C35.419 27.6287 37.1465 28.3967 39.1143 28.3967C42.2818 28.3954 44.8736 26.2357 44.8736 23.6439Z" fill="#7BD5D5"/>
<path d="M6.57498 39.4819C8.44678 41.3534 11.8062 41.0175 14.0139 38.7619C14.6584 38.1356 15.1628 37.3797 15.4936 36.5441C15.8244 35.7085 15.9742 34.8122 15.933 33.9145C15.7891 32.2349 15.885 31.8987 16.1729 31.1791C16.3651 30.6497 17.8048 29.2113 18.9086 28.2035L18.3792 27.674L17.8498 27.1463C16.794 28.2501 15.3543 29.6898 14.8742 29.8817C14.1542 30.1699 13.7704 30.2658 12.1388 30.1219C11.2386 30.0583 10.3357 30.1978 9.49671 30.5299C8.65769 30.8621 7.90402 31.3785 7.29134 32.041C5.03936 34.2986 4.70318 37.6101 6.57498 39.4819Z" fill="#7BD5D5"/>
<path d="M38.2986 7.75824C36.4268 5.88643 33.1154 6.22261 30.8114 8.47824C30.1669 9.10451 29.6625 9.86042 29.3317 10.696C29.0009 11.5316 28.8511 12.4279 28.8923 13.3257C28.9883 15.0052 28.9403 15.3411 28.6521 16.0611C28.4602 16.5905 27.0205 18.0288 25.9167 19.0367L26.4444 19.5661L26.9739 20.0955C27.9817 19.0397 29.4224 17.552 29.9495 17.3598C30.6692 17.0719 31.0533 16.976 32.6849 17.1199C33.585 17.1834 34.4879 17.044 35.3269 16.7118C36.1659 16.3796 36.9196 15.8632 37.5323 15.2008C39.8343 12.9415 40.1691 9.63004 38.2986 7.75824Z" fill="#7BD5D5"/>
<path d="M22.4607 16.6606C21.0748 16.6606 19.72 17.0716 18.5677 17.8415C17.4154 18.6115 16.5173 19.7058 15.9869 20.9862C15.4566 22.2666 15.3178 23.6755 15.5882 25.0347C15.8586 26.394 16.5259 27.6425 17.5059 28.6225C18.4858 29.6024 19.7344 30.2698 21.0936 30.5402C22.4529 30.8105 23.8618 30.6718 25.1421 30.1414C26.4225 29.6111 27.5169 28.713 28.2868 27.5607C29.0568 26.4083 29.4677 25.0536 29.4677 23.6677C29.4707 22.7467 29.2915 21.8342 28.9404 20.9827C28.5893 20.1312 28.0733 19.3576 27.422 18.7063C26.7708 18.0551 25.9971 17.539 25.1457 17.188C24.2942 16.8369 23.3817 16.6577 22.4607 16.6606ZM22.4607 28.2018C21.5497 28.2019 20.6591 27.9318 19.9017 27.4257C19.1442 26.9197 18.5538 26.2004 18.2051 25.3587C17.8565 24.5171 17.7652 23.591 17.9429 22.6976C18.1206 21.8041 18.5592 20.9834 19.2034 20.3392C19.8475 19.695 20.6682 19.2563 21.5616 19.0786C22.4551 18.9008 23.3812 18.992 24.2228 19.3406C25.0645 19.6892 25.7838 20.2796 26.2899 21.037C26.7961 21.7944 27.0662 22.6849 27.0662 23.5959C27.0788 24.2043 26.9682 24.8088 26.7412 25.3734C26.5142 25.9379 26.1753 26.4507 25.7451 26.8809C25.3148 27.3111 24.802 27.6499 24.2375 27.8769C23.6729 28.1039 23.0683 28.2144 22.46 28.2018H22.4607Z" fill="#7BD5D5"/>
<path d="M56.4343 14.7494C56.4343 18.2088 59.4053 19.3894 62.8239 20.4075C67.3822 21.7506 72.6323 23.1343 72.6323 29.6868C72.6323 35.3846 67.6671 38.2742 62.1728 38.2742C58.8759 38.2742 56.5967 36.9718 54.9265 36.9718C53.7869 36.9718 53.014 37.5416 52.159 38.2742L51.5515 29.033H51.6329C54.1562 34.2017 58.1042 37.4172 62.1334 37.4172C65.5928 37.4172 68.0347 35.5044 68.0347 32.0857C68.0347 28.0969 64.1276 27.1205 60.1388 25.8588C56.0286 24.5972 51.8363 22.9692 51.8363 17.3118C51.8363 12.2245 56.0286 8.96893 61.6857 8.96893C64.8192 8.96893 66.9358 10.2306 68.4417 10.2306C69.5812 10.2306 70.2324 9.53838 70.8429 8.96893L71.0057 17.19H70.9243C68.6859 12.9571 65.9591 9.8236 61.6857 9.8236C58.8352 9.8236 56.4343 11.5329 56.4343 14.7494Z" fill="#117777"/>
<path d="M82.1551 33.4284C82.1551 36.1149 82.399 36.766 84.2304 37.7835V37.8649H74.2596V37.7835C76.0907 36.766 76.2945 36.1149 76.2945 33.4284V22.3597C76.2945 19.755 75.9282 18.9411 74.0151 17.9236V17.8422H82.1548L82.1551 33.4284ZM79.1024 7.91044C81.097 7.91044 82.6025 9.37592 82.6025 11.2884C82.6025 13.2009 81.097 14.6664 79.1024 14.6664C77.1078 14.6664 75.6023 13.2016 75.6023 11.2884C75.6023 9.37526 77.1082 7.91044 79.1024 7.91044Z" fill="#117777"/>
<path d="M112.801 17.4342C116.952 17.4342 118.946 20.2828 118.946 24.5151V33.4284C118.946 36.1149 119.191 36.766 121.022 37.7835V37.8649H111.051V37.7835C112.882 36.766 113.086 36.1149 113.086 33.4284V24.5158C113.086 22.2367 112.475 20.3645 110.075 20.3645C107.674 20.3645 106.086 22.6029 106.086 26.6321V33.4284C106.086 36.1149 106.33 36.766 108.162 37.7835V37.8649H98.19V37.7835C100.021 36.766 100.225 36.1149 100.225 33.4284V24.5158C100.225 22.2367 99.6144 20.3645 97.2139 20.3645C94.8133 20.3645 93.2254 22.6029 93.2254 26.6321V33.4284C93.2254 36.1149 93.4693 36.766 95.3007 37.7835V37.8649H85.3292V37.7835C87.1607 36.766 87.3638 36.1149 87.3638 33.4284V22.3597C87.3638 19.755 86.9979 18.9411 85.0847 17.9236V17.8422H93.2244V23.2948C94.1605 19.5912 96.4803 17.4342 99.9413 17.4342C103.645 17.4342 105.721 19.7133 106.046 23.2948C106.981 19.5912 109.341 17.4342 112.801 17.4342Z" fill="#117777"/>
<path d="M129.812 42.4231C129.812 45.1092 130.016 45.7604 131.848 46.7779V46.8593H121.876V46.7789C123.708 45.7614 123.952 45.1102 123.952 42.4241V22.3597C123.952 19.755 123.545 18.9411 121.632 17.9236V17.8422H129.812V23.0913C130.626 19.9982 133.15 17.4332 136.813 17.4332C141.656 17.4332 145.604 21.3403 145.604 27.6486C145.604 34.0789 141.534 38.2699 136.528 38.2699C132.987 38.2699 130.626 36.0722 129.811 33.1826L129.812 42.4231ZM129.812 25.9402V29.9283C129.812 33.9171 132.173 36.359 134.574 36.359C137.667 36.359 139.336 33.1846 139.336 27.6496C139.336 22.7657 137.586 19.9168 134.533 19.9168C132.132 19.9168 129.812 22.2774 129.812 25.9402Z" fill="#117777"/>
<path d="M154.348 33.4284C154.348 36.1149 154.551 36.766 156.423 37.7835V37.8649H146.411V37.7835C148.284 36.766 148.487 36.1149 148.487 33.4284V11.8582C148.487 9.29419 147.958 8.35813 146.045 7.46276V7.38136H154.348V33.4284Z" fill="#117777"/>
<path d="M167.086 38.5564L158.987 22.2367C157.685 19.632 157.278 19.0618 155.934 17.9226V17.8412H165.621V17.9226C164.685 18.452 164.441 18.9401 164.441 19.754C164.49 20.5907 164.712 21.4082 165.092 22.1553L169.731 31.9222L173.68 22.5215C173.943 21.904 174.081 21.2405 174.087 20.5693C174.087 19.3484 173.436 18.4123 172.215 17.9239V17.8425H178.076V17.9239C176.651 18.9828 176.041 19.8368 174.899 22.5232L166.599 42.0568C165.093 45.5569 163.425 47.2663 160.779 47.2663C158.459 47.2663 156.75 45.9639 156.75 43.7258C156.75 41.6502 158.215 40.4699 159.965 40.4699C160.411 40.4683 160.853 40.5511 161.268 40.7141C160.454 41.0804 160.088 41.6909 160.088 42.627C160.077 42.9165 160.127 43.2051 160.234 43.4743C160.342 43.7435 160.504 43.9873 160.711 44.1903C160.917 44.3933 161.164 44.5509 161.435 44.6531C161.706 44.7553 161.996 44.7999 162.285 44.784C163.832 44.784 164.809 43.6854 165.867 41.3246L167.086 38.5564Z" fill="#117777"/>
<path d="M67.2449 46.0248C67.2449 47.3668 66.7137 48.2336 65.6514 48.6252L67.7727 51.621H65.4717L63.6145 48.9488H62.32V51.621H60.4522V43.2447H63.6287C64.9302 43.2447 65.8589 43.4644 66.415 43.9038C66.9711 44.3432 67.2478 45.0502 67.2449 46.0248ZM64.9922 47.0194C65.1175 46.889 65.2133 46.7333 65.2732 46.5628C65.3332 46.3922 65.3558 46.2108 65.3397 46.0307C65.3605 45.8583 65.3387 45.6834 65.276 45.5215C65.2134 45.3595 65.1118 45.2154 64.9803 45.1019C64.5935 44.9008 64.1575 44.8136 63.723 44.8505H62.3207V47.3321H63.6869C64.3255 47.3312 64.7606 47.227 64.9922 47.0194Z" fill="#229E60"/>
<path d="M76.2148 43.2447V44.9104H72.0456V46.6359H75.7965V48.2298H72.0447V49.9676H76.3461V51.622H70.1752V43.2447H76.2148Z" fill="#229E60"/>
<path d="M83.2013 49.9676C83.6363 49.9761 84.0672 49.8817 84.4587 49.6919C84.8502 49.5021 85.1912 49.2224 85.454 48.8757L86.6524 50.1099C86.2568 50.5791 85.7697 50.9629 85.221 51.2378C84.6722 51.5127 84.0732 51.673 83.4604 51.7088C82.8477 51.7447 82.2341 51.6555 81.657 51.4465C81.0798 51.2375 80.5513 50.9132 80.1036 50.4933C79.2964 49.6628 78.8468 48.5489 78.8513 47.3907C78.8558 46.2325 79.3141 45.1222 80.1278 44.2979C80.5376 43.8911 81.0253 43.571 81.5616 43.3569C82.098 43.1427 82.6719 43.0389 83.2493 43.0515C83.9049 43.0411 84.5547 43.1766 85.1515 43.4481C85.7484 43.7197 86.2774 44.1205 86.7004 44.6215L85.538 45.9394C85.283 45.5953 84.9505 45.3161 84.5673 45.1246C84.1842 44.9331 83.7613 44.8347 83.333 44.8372C82.6651 44.8238 82.0183 45.0709 81.5294 45.5261C81.2782 45.7636 81.0813 46.0524 80.9521 46.373C80.8229 46.6935 80.7644 47.0382 80.7806 47.3834C80.7647 47.7276 80.8192 48.0715 80.9408 48.394C81.0624 48.7165 81.2485 49.0107 81.4877 49.2588C81.7097 49.4879 81.9763 49.669 82.271 49.7909C82.5658 49.9128 82.8824 49.9729 83.2013 49.9676Z" fill="#229E60"/>
<path d="M89.3657 43.2447H91.2352V51.621H89.3657V43.2447Z" fill="#229E60"/>
<path d="M100.203 43.9935C100.79 44.4927 101.084 45.2597 101.084 46.2944C101.084 47.3292 100.782 48.0862 100.179 48.5653C99.5759 49.0444 98.6551 49.2841 97.4167 49.2843H96.3023V51.621H94.4338V43.2447H97.3939C98.6795 43.2447 99.6159 43.4943 100.203 43.9935ZM98.8309 47.2891C99.0748 46.9755 99.1943 46.5829 99.1665 46.1866C99.1857 45.9919 99.1556 45.7954 99.0791 45.6153C99.0027 45.4353 98.8822 45.2773 98.7287 45.1559C98.3155 44.9221 97.8423 44.8158 97.3688 44.8505H96.3023V47.6666H97.5597C98.1833 47.6666 98.607 47.5408 98.8309 47.2891Z" fill="#229E60"/>
<path d="M109.783 43.2447V44.9104H105.614V46.6359H109.365V48.2298H105.613V49.9676H109.915V51.622H103.744V43.2447H109.783Z" fill="#229E60"/>
<path d="M114.8 44.9163C114.712 44.9866 114.642 45.0763 114.596 45.1782C114.549 45.2801 114.527 45.3916 114.53 45.5036C114.529 45.6212 114.559 45.7369 114.617 45.839C114.675 45.9411 114.759 46.0259 114.861 46.0847C115.344 46.3217 115.855 46.4931 116.383 46.5942C117.062 46.7337 117.698 47.0358 118.235 47.4747C118.463 47.6951 118.64 47.9627 118.753 48.2587C118.867 48.5547 118.915 48.872 118.893 49.1884C118.903 49.5375 118.832 49.8842 118.686 50.2013C118.539 50.5184 118.321 50.7972 118.049 51.0158C117.415 51.5068 116.627 51.7554 115.826 51.717C114.485 51.7113 113.199 51.1824 112.243 50.2429L113.357 48.877C114.26 49.6676 115.095 50.063 115.862 50.0632C116.148 50.0796 116.433 50.0018 116.671 49.8415C116.765 49.7732 116.841 49.6828 116.892 49.5784C116.943 49.4739 116.968 49.3585 116.964 49.2423C116.967 49.1242 116.94 49.0074 116.886 48.9026C116.831 48.7978 116.751 48.7085 116.653 48.6431C116.268 48.4276 115.851 48.2759 115.418 48.1937C114.648 48.0521 113.918 47.7433 113.28 47.2891C112.828 46.9174 112.602 46.3343 112.603 45.5397C112.584 45.1864 112.653 44.8341 112.802 44.5135C112.952 44.1928 113.177 43.9135 113.459 43.7C114.081 43.2528 114.833 43.0251 115.598 43.0528C116.169 43.0551 116.737 43.1523 117.276 43.3407C117.81 43.5183 118.306 43.7947 118.738 44.1553L117.79 45.5215C117.152 45.0023 116.359 44.7112 115.537 44.6943C115.273 44.6797 115.012 44.7583 114.8 44.9163Z" fill="#229E60"/>
</g>
</g>
<defs>
<clipPath id="clip0_1_1014">
<rect width="180" height="56" fill="white" transform="translate(0 0.203125)"/>
</clipPath>
<clipPath id="clip1_1_1014">
<rect width="178.075" height="50.5337" fill="white" transform="translate(0 1.18327)"/>
</clipPath>
</defs>
</svg>
