<svg width="16" height="17" viewBox="0 0 16 17" fill="none" xmlns="http://www.w3.org/2000/svg">
<g clip-path="url(#clip0_1_92)">
<g clip-path="url(#clip1_1_92)">
<path fill-rule="evenodd" clip-rule="evenodd" d="M16 8.69629C16 4.2781 12.4182 0.696289 8 0.696289C7.63181 0.696289 7.33333 0.994766 7.33333 1.36296V4.02962L7.33782 4.10737C7.37633 4.43893 7.65811 4.69629 8 4.69629L8.07775 4.6918C8.40931 4.65329 8.66667 4.37151 8.66667 4.02962V2.06296L8.73852 2.07007C12.0728 2.43755 14.6667 5.26409 14.6667 8.69629C14.6667 12.3781 11.6818 15.363 8 15.363C4.31819 15.363 1.33333 12.3781 1.33333 8.69629C1.33333 7.62755 1.58466 6.59653 2.06024 5.66647C2.22786 5.33865 2.098 4.93701 1.77018 4.76939C1.44236 4.60176 1.04072 4.73162 0.873097 5.05944C0.302003 6.17632 0 7.41521 0 8.69629C0 13.1145 3.58181 16.6963 8 16.6963C12.4182 16.6963 16 13.1145 16 8.69629ZM5.74193 5.50276C5.48041 5.29941 5.10225 5.31789 4.86193 5.55822C4.60158 5.81857 4.60158 6.24068 4.86193 6.50103L7.5286 9.16769L7.5914 9.22315C7.85293 9.4265 8.23108 9.40802 8.47141 9.16769C8.73175 8.90734 8.73175 8.48523 8.47141 8.22488L5.80474 5.55822L5.74193 5.50276Z" fill="#008080"/>
</g>
</g>
<defs>
<clipPath id="clip0_1_92">
<rect width="16" height="16" fill="white" transform="translate(0 0.625)"/>
</clipPath>
<clipPath id="clip1_1_92">
<rect width="16" height="17" fill="white" transform="translate(0 0.625)"/>
</clipPath>
</defs>
</svg>
