<svg width="105" height="32" viewBox="0 0 105 32" fill="none" xmlns="http://www.w3.org/2000/svg">
<g clip-path="url(#clip0_1_516)">
<g clip-path="url(#clip1_1_516)">
<path d="M102.6 11.4032C103.8 13.1032 104.5 14.7032 105 16.5032C104.8 19.4032 102.3 21.0032 101.1 23.3032C99.2 24.0032 97.3 24.7032 95.6 25.4032C92.4 31.5032 91.9 31.7032 84.9 31.6032C77.7 31.5032 71.5 29.3032 66.4 24.2032C65.7 23.4032 64.8 22.9032 64 22.1032C59.3 17.8032 54 16.9032 47.6 18.0032C37.1 19.7032 26.4 20.0032 15.8 20.3032C11.8 20.5032 7.9 20.0032 4 19.7032C2.1 19.6032 0.9 18.8032 0.6 17.0032C0.4 16.1032 0.2 15.3032 0 14.5032C0.5 12.4032 2.1 11.3032 3 9.80319C8.8 8.00319 14.6 8.70319 20.3 8.90319C23.3 9.10319 26.2 9.10319 29.1 9.40319C36.8 10.2032 44.4 10.3032 52 11.7032C54.8 12.3032 58.2 12.7032 60.7 9.40319C62.2 7.30319 64.9 5.80319 67.1 4.2032C72 0.903195 77.4 -0.196805 83.2 1.5032C85.1 2.1032 87.2 2.30319 88.9 3.30319C89.4 3.5032 90 3.7032 90.3 4.1032C93.4 8.30319 98.2 9.70319 102.6 11.4032ZM50.8 14.7032C49.4 12.9032 49.4 12.9032 47.7 12.6032C44.1 11.9032 40.4 12.2032 36.9 11.8032C28.1 10.8032 19.3 10.8032 10.3 10.4032C7 10.2032 4 11.1032 2.1 14.4032C2.3 15.6032 2.1 17.0032 3.9 18.1032C9.6 18.3032 15.6 19.6032 21.9 18.6032C23.1 18.4032 24.3 18.5032 25.5 18.4032C28.8 18.0032 32.1 18.7032 35.5 18.1032C38.7 17.5032 41.8 17.0032 45.1 16.8032C47.1 16.6032 49.3 16.6032 50.8 14.7032ZM63.3 19.5032C64.7 20.7032 66.1 21.7032 67.3 23.0032C73.2 29.2032 80.8 30.6032 89 30.0032C91.9 29.8032 92.6 29.1032 92.8 25.3032C82.8 24.4032 73 22.3032 63.3 19.5032ZM87.8 17.7032C84.2 18.4032 81.3 18.6032 78.5 18.1032C75.6 17.6032 72.6 17.7032 69.9 16.0032C74.8 15.7032 79.5 17.4032 85 16.4032C75.9 13.3032 67 14.9032 58.3 14.7032C61.5 15.5032 64.2 17.1032 67.1 18.4032C68.8 19.2032 70.6 19.7032 72.5 19.8032C76.2 20.1032 80 20.0032 83.8 19.7032C85.1 19.6032 86.4 19.4032 87.8 17.7032ZM95.7 23.2032C100 23.1032 102.1 20.5032 103.5 17.1032C102.2 13.8032 102.2 13.8032 99.7 12.0032C99.1 15.8032 97.3 18.6032 93.8 20.2032C94.5 21.3032 95.1 22.3032 95.7 23.2032ZM97.4 12.9032C96.6 11.1032 95.1 10.7032 92.8 10.5032C93.1 13.6032 89.1 15.4032 91.1 18.8032C92.8 19.3032 93.9 18.2032 95.1 17.9032C96.6 16.3032 97.4 14.8032 97.4 12.9032ZM88.3 15.6032C88.3 13.3032 88.1 11.7032 86.5 10.5032C85.1 10.7032 83.7 10.8032 82.2 10.9032C80.7 11.0032 79.3 11.0032 77.8 11.1032C76.5 11.3032 75.3 11.7032 74 12.0032C78.9 13.0032 83.5 13.7032 88.3 15.6032ZM69.1 5.2032C75.6 3.80319 82.1 6.00319 89.2 5.30319C82.1 1.80319 75.5 1.5032 69.1 5.2032ZM62.7 12.8032C70.2 11.3032 77 10.0032 83.9 8.6032C82.3 6.7032 80.1 6.90319 78.3 7.40319C75.2 8.2032 72.1 8.9032 69.1 9.80319C67.1 10.4032 65.1 11.0032 62.7 12.8032ZM82.3 21.6032C81.7 21.6032 81.6 21.6032 81.9 21.9032C82 22.0032 82.1 22.0032 82.2 22.1032C85 23.6032 88.3 22.5032 91.3 23.5032C91.9 23.7032 92.6 23.8032 93.2 22.8032C92.9 21.3032 91.7 21.2032 90.2 21.3032C87.4 21.4032 84.8 21.5032 82.3 21.6032ZM52.5 15.3032C54.8 15.6032 55.9 15.1032 55.7 14.0032C54.8 13.2032 53.8 13.4032 52.9 13.8032C52.3 14.3032 52.5 14.8032 52.5 15.3032ZM68.3 7.6032C70.5 8.0032 72.4 7.30319 74.7 6.7032C72.3 5.90319 70.4 7.30319 68.3 7.6032Z" fill="#7BD5D5"/>
</g>
</g>
<defs>
<clipPath id="clip0_1_516">
<rect width="105" height="31" fill="white" transform="translate(0 0.703125)"/>
</clipPath>
<clipPath id="clip1_1_516">
<rect width="105" height="31" fill="white" transform="translate(0 0.703125)"/>
</clipPath>
</defs>
</svg>
