<svg width="22" height="23" viewBox="0 0 22 23" fill="none" xmlns="http://www.w3.org/2000/svg">
<g clip-path="url(#clip0_1_125)">
<g clip-path="url(#clip1_1_125)">
<path fill-rule="evenodd" clip-rule="evenodd" d="M6.87536 6.38317L9.16691 1.34446C9.62536 0.421875 11 0.421875 11 0.421875V19.7634C11 19.7634 9.91987 20.3361 9.62536 20.4972L6.68658 22.1501C6.32096 22.3443 5.90783 22.431 5.49497 22.4002C5.08212 22.3695 4.68641 22.2225 4.3536 21.9762C4.02079 21.73 3.76449 21.3946 3.61434 21.0087C3.46419 20.6229 3.42631 20.2025 3.5051 19.7961L4.33968 14.6154L0.598262 10.7463C0.329774 10.4706 0.141187 10.1272 0.0526333 9.75273C-0.0359207 9.37825 -0.021117 8.98675 0.0954639 8.62003C0.212045 8.25331 0.426026 7.92514 0.714565 7.67054C1.0031 7.41594 1.35537 7.24448 1.73375 7.17446L6.87536 6.38317Z" fill="#117777"/>
<g opacity="0.354">
<path fill-rule="evenodd" clip-rule="evenodd" d="M18.5048 19.787C18.5837 20.193 18.5463 20.613 18.3967 20.9986C18.2472 21.3842 17.9916 21.7197 17.6596 21.9663C17.3275 22.2129 16.9325 22.3605 16.5201 22.3922C16.1077 22.4238 15.6948 22.3382 15.329 22.1452L11.0084 19.7366L6.68934 22.1495C6.3237 22.3444 5.9103 22.4318 5.49705 22.4014C5.08379 22.3711 4.68759 22.2243 4.35435 21.978C4.02111 21.7317 3.76447 21.3961 3.61415 21.0099C3.46383 20.6238 3.42599 20.203 3.50502 19.7962L4.3396 14.6156L0.598182 10.7457C0.330933 10.4695 0.143444 10.126 0.0556089 9.75185C-0.0322267 9.37768 -0.0171327 8.9867 0.0992892 8.62041C0.215711 8.25411 0.429118 7.92617 0.716868 7.67137C1.00462 7.41656 1.35598 7.24441 1.73367 7.17317L6.86038 6.3833L9.03483 1.69942C9.20317 1.31977 9.47809 0.997148 9.82622 0.770697C10.1743 0.544246 10.5807 0.423706 10.996 0.423706C11.4113 0.423706 11.8177 0.544246 12.1658 0.770697C12.514 0.997148 12.7889 1.31977 12.9572 1.69942L15.1359 6.37904L20.2619 7.16394C20.64 7.23435 20.9919 7.40586 21.2804 7.66023C21.5688 7.91461 21.7829 8.24236 21.9 8.60868C22.0171 8.97499 22.0328 9.36618 21.9455 9.7407C21.8581 10.1152 21.6709 10.4591 21.4038 10.7357L17.6652 14.6063L18.5048 19.787Z" fill="#117777"/>
</g>
</g>
</g>
<defs>
<clipPath id="clip0_1_125">
<rect width="22" height="22" fill="white" transform="translate(0 0.421875)"/>
</clipPath>
<clipPath id="clip1_1_125">
<rect width="22" height="22" fill="white" transform="translate(0 0.421875)"/>
</clipPath>
</defs>
</svg>
