<svg width="22" height="23" viewBox="0 0 22 23" fill="none" xmlns="http://www.w3.org/2000/svg">
<g clip-path="url(#clip0_1_119)">
<g clip-path="url(#clip1_1_119)">
<path fill-rule="evenodd" clip-rule="evenodd" d="M18.5048 19.7868C18.8004 21.6119 16.9428 23.0455 15.3261 22.145L11.0056 19.7362L6.68671 22.149C5.07097 23.0514 3.21117 21.6192 3.50506 19.7931L4.33991 14.6134L0.598078 10.7452C-0.574602 9.53373 0.0679142 7.43121 1.73618 7.17315L6.86078 6.38047L9.03469 1.69877C9.82511 -0.00288595 12.1657 -0.00407934 12.9575 1.69712L15.136 6.37662L20.2617 7.16474C21.9313 7.42108 22.5757 9.52365 21.4035 10.7361L17.6656 14.607L18.5048 19.7868Z" fill="#abcfcf"/>
</g>
</g>
<defs>
<clipPath id="clip0_1_119">
<rect width="22" height="22" fill="#abcfcf" transform="translate(0 0.421875)"/>
</clipPath>
<clipPath id="clip1_1_119">
<rect width="22" height="22.9167" fill="#abcfcf" transform="translate(0 0.421875)"/>
</clipPath>
</defs>
</svg>
