<svg width="24" height="20" viewBox="0 0 24 20" fill="none" xmlns="http://www.w3.org/2000/svg">
<g clip-path="url(#clip0_1_1091)">
<g clip-path="url(#clip1_1_1091)">
<path d="M10.9855 3.02938L11.6979 3.6973L12.4104 3.02938C13.2019 2.28726 13.8799 1.80376 14.5789 1.49791C15.269 1.19592 16.0384 1.04167 17.0452 1.04167C18.682 1.04167 19.9709 1.69531 20.8666 2.75298C21.7757 3.82635 22.3229 5.37159 22.3229 7.18595C22.3229 9.39625 21.2061 11.6498 19.2584 13.6933C17.3238 15.723 14.6403 17.4652 11.6979 18.6397C8.7556 17.4652 6.0721 15.723 4.1375 13.6933C2.18978 11.6498 1.07294 9.39625 1.07294 7.18595C1.07294 5.37159 1.62016 3.82635 2.52924 2.75298C3.42501 1.69531 4.71381 1.04167 6.35071 1.04167C7.35745 1.04167 8.12684 1.19592 8.81702 1.49791C9.51602 1.80376 10.1939 2.28726 10.9855 3.02938Z" stroke="#D86D38" stroke-width="2.5"/>
</g>
</g>
<defs>
<clipPath id="clip0_1_1091">
<rect width="24" height="20" fill="white"/>
</clipPath>
<clipPath id="clip1_1_1091">
<rect width="23.3333" height="20" fill="white" transform="translate(0.03125)"/>
</clipPath>
</defs>
</svg>
