<svg width="23" height="21" viewBox="0 0 23 21" fill="none" xmlns="http://www.w3.org/2000/svg">
<g clip-path="url(#clip0_1_1097)">
<path fill-rule="evenodd" clip-rule="evenodd" d="M10.2195 16.5C5.85085 16.5 2.30933 13.0178 2.30933 8.72222C2.30933 4.42667 5.85085 0.944443 10.2195 0.944443C14.5882 0.944443 18.1297 4.42667 18.1297 8.72222C18.1297 10.5847 17.464 12.2942 16.3537 13.6333L22.0848 19.2676L20.9454 20.3889L15.2137 14.7541C13.8519 15.8456 12.1134 16.5 10.2195 16.5ZM10.2195 14.9127C13.6967 14.9127 16.5154 12.1411 16.5154 8.72222C16.5154 5.30332 13.6967 2.53174 10.2195 2.53174C6.74247 2.53174 3.9237 5.30332 3.9237 8.72222C3.9237 12.1411 6.74247 14.9127 10.2195 14.9127Z" fill="#616161"/>
</g>
<defs>
<clipPath id="clip0_1_1097">
<rect width="23" height="21" fill="white"/>
</clipPath>
</defs>
</svg>
